<?xml version="1.0" standalone="no"?><svg xmlns="http://www.w3.org/2000/svg" viewBox="0 0 1440 320"><path fill="#2ec1fd" fill-opacity="1" d="M0,192L34.3,181.3C68.6,171,137,149,206,144C274.3,139,343,149,411,170.7C480,192,549,224,617,202.7C685.7,181,754,107,823,90.7C891.4,75,960,117,1029,112C1097.1,107,1166,53,1234,69.3C1302.9,85,1371,171,1406,213.3L1440,256L1440,0L1405.7,0C1371.4,0,1303,0,1234,0C1165.7,0,1097,0,1029,0C960,0,891,0,823,0C754.3,0,686,0,617,0C548.6,0,480,0,411,0C342.9,0,274,0,206,0C137.1,0,69,0,34,0L0,0Z"></path></svg>