<?xml version="1.0" standalone="no"?>
<!DOCTYPE svg PUBLIC "-//W3C//DTD SVG 20010904//EN"
 "http://www.w3.org/TR/2001/REC-SVG-20010904/DTD/svg10.dtd">
<svg version="1.0" xmlns="http://www.w3.org/2000/svg"
 width="1440.000000pt" height="256.000000pt" viewBox="0 0 1440.000000 256.000000"
 preserveAspectRatio="xMidYMid meet">

<g transform="translate(0.000000,256.000000) scale(0.100000,-0.100000)"
fill="#000000" stroke="none">
<path d="M7210 2541 c-6 -13 -17 -18 -32 -14 -20 4 -21 3 -5 -7 9 -6 17 -17
17 -25 0 -11 6 -12 25 -5 29 11 41 -5 43 -60 1 -32 0 -33 -10 -12 -6 12 -16
21 -22 19 -11 -4 -30 -37 -41 -71 -5 -17 -7 -17 -31 -1 -14 9 -28 14 -31 12
-2 -3 4 -10 15 -16 12 -6 20 -21 20 -37 0 -18 -3 -22 -9 -13 -6 11 -9 10 -15
-4 -3 -9 -4 -23 -1 -31 3 -8 -1 -17 -9 -20 -12 -5 -13 -10 -3 -28 11 -21 11
-22 -5 -9 -10 8 -14 21 -11 32 5 14 1 19 -12 19 -15 0 -16 -2 -3 -10 11 -7 11
-10 2 -10 -7 0 -10 -6 -7 -12 4 -7 0 -5 -7 4 -10 11 -19 14 -29 7 -11 -7 -11
-9 4 -9 14 0 16 -4 8 -17 -6 -12 -5 -21 7 -31 15 -12 15 -12 -2 -4 -23 11 -58
4 -49 -11 4 -6 0 -8 -10 -4 -11 4 -17 1 -17 -8 0 -8 4 -15 9 -15 5 0 11 -9 14
-21 4 -14 10 -18 19 -14 10 6 10 5 1 -5 -8 -9 -9 -19 -2 -31 7 -14 6 -17 -4
-13 -8 3 -21 -2 -30 -10 -8 -8 -17 -13 -20 -9 -7 7 16 32 25 27 3 -2 5 4 3 13
-2 10 -4 24 -4 31 -1 7 -6 10 -11 7 -8 -5 -7 -11 1 -21 11 -13 2 -19 -23 -15
-5 0 -8 -5 -9 -11 0 -7 -4 -4 -8 6 -7 17 -8 18 -14 3 -3 -9 0 -23 8 -31 8 -8
15 -17 15 -19 0 -7 -22 -3 -37 6 -8 5 -13 3 -13 -6 0 -18 -27 -30 -44 -20 -20
12 0 77 21 69 13 -5 14 -4 3 9 -7 8 -8 15 -3 15 5 0 10 7 10 15 0 18 -21 14
-23 -3 -1 -7 -2 -16 -3 -22 0 -5 -9 -6 -18 -3 -12 5 -15 2 -10 -10 3 -9 0 -23
-8 -31 -16 -16 -20 -30 -6 -22 5 3 11 -3 14 -14 3 -11 9 -20 14 -19 25 4 35
-1 24 -14 -6 -8 -8 -17 -5 -20 3 -3 -10 -23 -30 -43 -20 -20 -36 -33 -36 -28
-1 5 -7 -4 -14 -21 -10 -22 -10 -34 -2 -44 8 -11 8 -13 -1 -8 -13 8 -12 -30 1
-51 10 -16 -2 -15 -20 2 -10 11 -11 15 -1 19 8 3 5 12 -10 27 -18 20 -25 21
-52 12 -18 -6 -39 -8 -49 -5 -15 6 -15 5 -3 -10 7 -9 18 -14 24 -10 6 4 8 0 5
-9 -4 -9 0 -15 9 -15 9 0 13 7 10 19 -3 10 -1 16 4 12 5 -3 9 0 9 5 0 6 7 11
15 11 12 0 13 -4 5 -19 -13 -26 -13 -34 3 -25 9 5 9 4 0 -6 -6 -7 -9 -19 -6
-27 5 -13 3 -13 -17 -3 -15 8 -20 8 -16 1 4 -6 3 -11 -2 -11 -6 0 -12 6 -15
14 -3 7 -16 14 -29 14 -13 0 -27 1 -33 2 -21 5 -36 0 -30 -10 3 -5 0 -10 -7
-10 -8 0 -6 -5 5 -11 9 -5 17 -17 17 -24 0 -8 4 -15 9 -15 8 0 8 -16 1 -40 -1
-3 -5 4 -10 15 -7 16 -9 17 -9 3 -1 -24 15 -31 41 -16 32 18 58 18 51 2 -6
-17 -23 -18 -23 -2 0 6 -3 8 -6 5 -4 -4 -1 -13 6 -22 8 -10 9 -15 1 -15 -6 0
-11 5 -11 10 0 6 -15 8 -35 6 -19 -3 -35 0 -35 4 0 5 -7 7 -15 4 -8 -4 -15
-10 -15 -16 0 -5 4 -7 9 -3 5 3 12 1 16 -4 3 -6 13 -7 23 -4 13 4 13 2 -3 -10
-11 -8 -23 -13 -27 -11 -5 3 -8 0 -8 -5 0 -14 47 -14 53 -1 3 6 4 5 3 -2 -1
-7 -15 -14 -29 -16 -16 -2 -25 -8 -21 -14 4 -6 1 -9 -7 -6 -8 3 -13 15 -12 27
3 25 -14 28 -20 4 -4 -17 -5 -17 -6 0 0 9 -8 17 -16 17 -14 0 -19 11 -16 36 1
6 -5 11 -12 11 -8 0 -14 -6 -14 -14 0 -7 4 -13 8 -13 13 0 3 -32 -14 -45 -14
-10 -15 -14 -4 -24 8 -6 17 -8 21 -4 4 4 4 0 0 -10 -3 -9 -10 -17 -16 -17 -5
0 -7 4 -4 8 3 5 -4 16 -15 26 -20 17 -21 17 -14 -6 4 -13 14 -27 22 -31 7 -5
10 -14 6 -20 -3 -7 4 -3 16 8 13 11 20 27 18 37 -3 10 -1 21 5 24 6 4 5 10 -3
15 -11 7 -10 9 5 9 13 0 17 -5 13 -20 -3 -11 0 -20 5 -20 6 0 17 -8 24 -17 12
-16 15 -16 23 -3 6 8 12 12 15 10 2 -3 -2 -14 -10 -25 -9 -12 -18 -16 -22 -10
-4 6 -14 15 -22 22 -12 9 -15 7 -15 -13 0 -15 5 -22 13 -19 6 2 12 0 12 -5 0
-6 -11 -10 -24 -10 -44 0 -57 -10 -45 -32 7 -13 7 -18 1 -14 -6 3 -12 3 -15
-1 -2 -5 -2 -3 -1 4 2 7 -3 10 -14 6 -15 -6 -15 -5 -4 10 8 9 12 22 9 29 -4 8
-8 5 -12 -9 -8 -24 -29 -31 -40 -13 -9 15 -25 12 -19 -4 3 -8 1 -17 -5 -21 -6
-3 -11 1 -11 9 0 10 -6 13 -15 10 -22 -9 -18 -31 5 -29 11 1 23 4 26 8 4 4 17
7 28 7 20 -1 20 -1 2 -11 -17 -11 -17 -13 9 -35 26 -22 27 -24 7 -24 -11 0
-28 10 -36 22 -16 22 -16 22 -33 3 -10 -11 -12 -15 -4 -8 10 9 17 8 31 -5 25
-25 32 -50 13 -48 -9 0 -17 -7 -19 -17 -1 -11 -6 -22 -10 -25 -4 -4 -4 1 -1
11 6 15 -3 22 -25 18 -5 0 -8 12 -8 27 0 20 -5 28 -19 28 -11 0 -17 -5 -14
-13 3 -7 -2 -13 -10 -13 -9 0 -19 -5 -23 -12 -4 -6 -3 -8 4 -4 5 3 12 0 15 -6
3 -9 10 -7 21 7 11 14 14 15 10 4 -3 -10 2 -19 12 -23 13 -5 14 -9 4 -21 -11
-13 -10 -14 3 -10 8 4 18 2 22 -4 3 -7 0 -8 -9 -5 -9 3 -16 1 -16 -6 0 -6 -4
-8 -10 -5 -5 3 -10 -3 -10 -14 0 -22 -14 -28 -25 -11 -3 6 -1 10 4 10 6 0 11
7 11 16 0 19 -25 13 -26 -7 0 -8 4 -20 9 -26 6 -9 5 -13 -3 -13 -9 0 -9 -4 1
-17 12 -14 12 -16 -2 -11 -10 4 -16 1 -16 -8 0 -8 4 -14 9 -14 5 0 6 -5 3 -10
-4 -6 -11 -8 -16 -5 -16 10 -31 -5 -19 -19 8 -10 3 -13 -20 -12 -16 1 -28 6
-26 11 2 6 9 9 15 7 6 -1 11 3 11 9 0 6 -9 9 -20 6 -11 -3 -20 0 -20 6 0 8 -4
7 -12 -1 -9 -9 -16 -8 -30 5 -10 9 -18 11 -18 5 0 -14 37 -35 49 -28 5 3 11
-4 14 -15 4 -13 10 -18 18 -13 9 5 11 1 7 -14 -4 -12 0 -23 7 -26 11 -4 10
-12 -3 -40 -9 -20 -20 -36 -24 -36 -4 0 -3 11 4 25 9 19 7 29 -6 50 -10 15
-20 24 -24 20 -4 -3 0 -10 7 -14 11 -7 10 -14 -3 -37 -11 -21 -15 -24 -16 -11
0 10 -5 15 -10 12 -6 -4 -8 -10 -6 -14 3 -4 1 -13 -5 -21 -7 -12 -9 -10 -9 8
0 27 -16 29 -29 3 -8 -14 -7 -22 3 -30 7 -6 15 -8 19 -5 7 8 20 -34 13 -45 -7
-11 -46 -2 -46 10 0 5 -4 9 -10 9 -5 0 -9 -8 -8 -18 3 -37 -3 -52 -19 -53 -10
0 -13 -3 -6 -5 8 -4 9 -13 3 -29 -5 -12 -6 -26 -3 -29 4 -3 1 -6 -6 -6 -7 0
-11 8 -9 18 1 9 -2 18 -7 20 -6 1 -10 -8 -10 -20 0 -24 -19 -43 -34 -34 -4 3
-17 -4 -27 -16 -11 -12 -13 -18 -6 -14 7 4 12 2 12 -4 0 -7 7 -9 16 -6 14 6
15 4 4 -9 -9 -11 -15 -13 -20 -5 -5 8 -9 7 -13 -4 -4 -9 -11 -16 -17 -16 -6 0
-9 4 -5 9 3 5 1 13 -5 16 -8 5 -6 15 5 31 10 16 11 24 4 24 -8 0 -8 4 1 15 6
8 8 20 4 26 -5 9 -2 10 10 6 10 -4 15 -3 11 3 -3 6 1 10 9 10 14 0 18 6 15 26
0 3 11 16 26 30 22 20 24 25 10 30 -11 5 -13 10 -5 19 9 11 7 12 -9 8 -12 -3
-21 -9 -21 -14 0 -5 -7 -6 -15 -3 -14 6 -19 -4 -12 -23 1 -4 11 -7 22 -6 11 2
14 0 8 -3 -7 -3 -13 -12 -13 -20 0 -9 -6 -11 -17 -7 -16 6 -17 5 -3 -13 8 -10
10 -16 6 -12 -5 4 -15 0 -22 -10 -8 -10 -13 -12 -14 -4 0 6 -8 12 -17 12 -15
-1 -15 -3 5 -19 26 -22 27 -28 7 -28 -8 0 -12 4 -9 8 2 4 0 10 -6 14 -11 7
-14 -18 -3 -29 4 -4 9 -18 10 -31 3 -18 -1 -25 -12 -25 -12 0 -15 6 -10 20 5
17 2 19 -26 15 -17 -2 -34 -7 -38 -11 -3 -4 2 -4 12 -1 11 4 17 1 17 -8 0 -8
-4 -15 -9 -15 -6 0 -6 -12 -1 -30 l8 -30 -40 5 c-29 4 -39 2 -35 -7 2 -7 13
-12 23 -10 17 2 17 2 2 -8 -9 -6 -15 -17 -12 -25 4 -8 11 -12 16 -9 6 4 5 10
-3 16 -10 7 -8 8 9 5 12 -3 20 -1 17 3 -3 5 5 10 17 12 22 3 23 7 11 50 -4 15
0 17 27 15 25 -2 34 -8 36 -25 3 -15 -1 -22 -12 -22 -13 0 -15 -6 -10 -28 4
-15 3 -22 -1 -17 -4 6 -16 11 -25 11 -17 2 -23 -13 -19 -43 1 -7 -2 -13 -8
-13 -5 0 -16 -3 -25 -6 -9 -3 -16 -1 -16 5 0 6 7 11 17 11 31 0 0 15 -40 19
-4 1 -6 4 -6 9 1 4 1 16 0 27 -1 18 -3 18 -26 -6 -17 -16 -24 -31 -19 -42 7
-18 24 -23 24 -7 0 6 -4 10 -10 10 -5 0 -10 5 -10 10 0 6 13 4 30 -5 17 -9 30
-20 30 -26 0 -8 -5 -7 -15 1 -18 15 -20 4 -2 -14 7 -7 18 -11 24 -9 7 3 19 -2
27 -9 12 -13 11 -16 -6 -27 -14 -8 -17 -18 -12 -34 5 -19 3 -18 -21 8 l-27 30
5 -28 c2 -15 0 -30 -4 -33 -5 -3 -9 -1 -9 5 0 6 -6 8 -13 5 -8 -3 -14 -11 -14
-19 0 -8 3 -13 5 -10 3 3 13 -2 23 -11 13 -12 31 -15 66 -11 26 2 77 7 111 11
35 3 68 9 73 12 6 3 20 7 32 9 58 7 170 39 252 72 220 88 385 183 850 493 410
273 555 362 740 451 247 119 390 157 626 166 242 9 435 -18 879 -122 191 -45
386 -85 525 -107 107 -17 429 -17 525 0 132 24 330 79 523 146 103 36 271 96
375 132 204 71 347 113 487 140 129 26 400 26 510 0 337 -79 654 -279 1044
-661 260 -255 462 -485 840 -960 101 -126 188 -234 192 -240 5 -5 9 560 9
1268 l0 1277 -3479 0 c-3063 0 -3480 -2 -3485 -15 -6 -17 9 -21 19 -5 4 6 11
8 16 4 17 -10 -10 -32 -32 -27 -14 4 -18 11 -14 24 5 15 1 19 -19 19 -14 0
-28 -5 -32 -12 -5 -7 -3 -8 6 -3 9 6 11 4 5 -5 -7 -11 -10 -10 -19 1 -6 8 -22
15 -36 16 -14 0 -19 -1 -12 -4 6 -3 10 -9 6 -14 -3 -5 0 -9 6 -9 6 0 8 -5 5
-10 -5 -8 -11 -8 -20 0 -10 8 -15 8 -20 -1 -4 -6 -2 -15 5 -19 9 -5 9 -9 1
-14 -6 -4 -11 -2 -11 5 0 8 -3 9 -13 0 -8 -6 -17 -8 -20 -4 -12 11 -8 21 11
26 9 3 -2 3 -26 1 -40 -4 -41 -3 -30 16 7 11 14 16 16 10 6 -16 29 -12 29 5 0
22 -34 19 -47 -4z m170 -44 c11 -5 9 -6 -4 -4 -11 1 -21 9 -23 17 -3 10 -2 11
4 4 4 -6 15 -14 23 -17z m137 -2 c0 -8 -4 -12 -9 -9 -5 3 -6 10 -3 15 9 13 12
11 12 -6z m-130 -49 c12 -5 14 -1 10 14 -4 17 -3 19 9 9 8 -6 14 -8 14 -3 0
12 20 -19 20 -31 0 -5 -4 -4 -9 4 -7 11 -13 12 -23 3 -9 -7 -19 -8 -28 -2 -23
14 -30 12 -23 -7 5 -14 3 -15 -6 -7 -10 9 -10 16 1 33 9 16 14 18 16 7 2 -8
10 -17 19 -20z m-83 -3 c3 -13 -2 -19 -15 -19 -10 0 -19 4 -19 8 0 4 7 8 15 8
9 0 12 6 8 18 -3 9 -3 14 1 11 4 -4 8 -15 10 -26z m-78 -49 c1 -9 0 -13 -4
-10 -3 4 -7 14 -8 22 -1 9 0 13 4 10 3 -4 7 -14 8 -22z m124 -24 c0 -5 -7 -7
-15 -4 -15 6 -19 -4 -16 -36 2 -13 0 -13 -8 -1 -6 10 -6 21 0 33 10 19 39 25
39 8z m-66 -25 c-4 -8 -8 -15 -10 -15 -2 0 -4 7 -4 15 0 8 4 15 10 15 5 0 7
-7 4 -15z m81 -5 c3 -5 1 -10 -4 -10 -6 0 -11 5 -11 10 0 6 2 10 4 10 3 0 8
-4 11 -10z m-145 -36 c0 -2 -7 -4 -15 -4 -8 0 -15 4 -15 10 0 5 7 7 15 4 8 -4
15 -8 15 -10z m93 -8 c7 4 7 2 -1 -7 -11 -12 -14 -12 -22 1 -5 8 -6 19 -2 25
4 6 8 3 10 -8 2 -10 9 -14 15 -11z m-45 -17 c-19 -12 -25 -11 -25 5 0 8 8 11
20 8 14 -4 16 -7 5 -13z m-81 -6 c10 -10 14 -15 8 -11 -7 4 -14 6 -16 4 -2 -2
-10 2 -17 10 -18 20 2 17 25 -3z m193 -7 c0 -2 -8 -10 -17 -17 -16 -13 -17
-12 -4 4 13 16 21 21 21 13z m-155 -35 c-3 -6 -11 -11 -16 -11 -5 0 -4 6 3 14
14 16 24 13 13 -3z m-121 -20 c9 -15 -5 -41 -28 -53 -20 -10 -20 -10 2 11 21
21 31 48 13 36 -5 -3 -12 -1 -16 5 -3 5 1 10 9 10 8 0 17 -4 20 -9z m181 -1
c8 -13 -5 -13 -25 0 -13 8 -13 10 2 10 9 0 20 -4 23 -10z m-91 -20 c6 0 12 -8
12 -17 0 -13 -9 -18 -29 -19 -16 -1 -25 2 -20 5 4 3 8 12 9 19 2 31 5 37 11
25 2 -7 10 -13 17 -13z m136 16 c0 -2 -8 -10 -17 -17 -16 -13 -17 -12 -4 4 13
16 21 21 21 13z m-77 -12 c-7 -3 -9 -13 -6 -22 5 -13 3 -14 -7 -5 -14 13 -5
33 13 32 9 0 9 -2 0 -5z m-127 -90 c8 -20 13 -39 10 -42 -3 -2 -8 4 -12 14 -3
10 -10 29 -15 42 -5 12 -6 22 -3 22 3 0 12 -16 20 -36z m44 32 c0 -11 -19 -15
-25 -6 -3 5 1 10 9 10 9 0 16 -2 16 -4z m-62 -66 c-3 -16 -1 -30 4 -30 4 0 8
-4 8 -8 0 -4 -9 -8 -20 -8 -10 0 -17 2 -15 5 3 2 0 10 -7 18 -6 7 -8 16 -4 20
3 3 6 1 6 -5 0 -7 5 -12 10 -12 6 0 10 7 10 15 0 8 -5 15 -11 15 -5 0 -7 5 -4
10 13 21 27 9 23 -20z m57 -10 c3 -5 1 -10 -4 -10 -6 0 -11 5 -11 10 0 6 2 10
4 10 3 0 8 -4 11 -10z m-145 -69 c-1 -14 -2 -14 -14 1 -7 10 -17 14 -21 10 -5
-4 -5 -2 -1 5 9 16 36 5 36 -16z m-107 6 c3 -7 -1 -21 -8 -30 -11 -15 -13 -15
-18 -3 -4 9 -2 18 4 21 5 4 7 11 4 16 -4 5 -2 9 3 9 6 0 12 -6 15 -13z m141
-47 c-6 -5 -24 21 -24 34 0 6 6 1 14 -10 8 -10 12 -21 10 -24z m-74 5 c11 -13
10 -14 -4 -9 -13 5 -15 2 -10 -12 5 -14 4 -16 -5 -8 -6 6 -9 18 -5 27 8 21 8
21 24 2z m44 6 c3 -5 0 -11 -7 -14 -8 -3 -14 1 -14 9 0 16 13 19 21 5z m17
-44 c-10 -9 -11 -8 -5 6 3 10 9 15 12 12 3 -3 0 -11 -7 -18z m-26 -5 c-3 -3
-11 0 -18 7 -9 10 -8 11 6 5 10 -3 15 -9 12 -12z m-45 -10 c0 -4 -10 -13 -22
-21 -23 -14 -23 -14 -4 8 20 22 26 25 26 13z m-95 -22 c3 -5 2 -10 -4 -10 -5
0 -13 5 -16 10 -3 6 -2 10 4 10 5 0 13 -4 16 -10z m112 -9 c-1 -11 -6 -17 -14
-14 -10 4 -11 9 -2 19 15 19 18 18 16 -5z m33 9 c0 -5 -2 -10 -4 -10 -3 0 -8
5 -11 10 -3 6 -1 10 4 10 6 0 11 -4 11 -10z m97 -22 c-3 -8 -6 -5 -6 6 -1 11
2 17 5 13 3 -3 4 -12 1 -19z m-289 -13 c-8 -17 -14 -22 -19 -14 -4 7 -2 18 4
25 20 22 27 16 15 -11z m36 -26 c-8 -13 -24 -1 -24 18 0 13 3 13 15 3 8 -7 12
-16 9 -21z m62 3 c-17 -16 -18 -16 -5 5 7 12 15 20 18 17 3 -2 -3 -12 -13 -22z
m-71 -42 c-3 -5 -13 -6 -21 -3 -12 4 -13 8 -3 14 15 9 32 2 24 -11z m28 0 c-5
-19 -23 -29 -23 -12 0 7 20 32 26 32 1 0 0 -9 -3 -20z m50 0 c3 -11 1 -20 -4
-20 -5 0 -9 7 -9 16 0 8 -4 12 -10 9 -5 -3 -10 -1 -10 4 0 19 28 12 33 -9z
m-263 -35 c6 3 10 2 10 -4 0 -5 -6 -14 -12 -18 -7 -4 -13 -14 -13 -22 0 -8 -6
-15 -13 -17 -7 -1 -8 0 -2 3 14 7 13 24 -2 21 -6 -2 -15 12 -18 30 -8 33 -8
33 16 17 14 -9 29 -13 34 -10z m145 -17 c-19 -12 -55 -19 -55 -11 0 6 43 22
60 22 10 0 9 -3 -5 -11z m45 -3 c11 -13 10 -14 -4 -9 -10 4 -16 1 -16 -7 0 -7
-2 -10 -5 -7 -5 5 4 38 10 38 1 0 8 -7 15 -15z m-125 -4 c3 -5 1 -12 -5 -16
-5 -3 -10 1 -10 9 0 18 6 21 15 7z m31 -48 c-10 -10 -19 5 -10 18 6 11 8 11
12 0 2 -7 1 -15 -2 -18z m184 17 c0 -5 -4 -10 -10 -10 -5 0 -10 5 -10 10 0 6
5 10 10 10 6 0 10 -4 10 -10z m-120 -23 c0 -6 -3 -8 -6 -4 -4 3 -13 -1 -21 -9
-9 -8 -18 -12 -22 -9 -3 4 2 11 12 16 9 6 15 14 12 20 -3 5 1 6 9 3 9 -3 16
-11 16 -17z m150 19 c0 -3 -4 -8 -10 -11 -5 -3 -10 -1 -10 4 0 6 5 11 10 11 6
0 10 -2 10 -4z m-240 -20 c0 -2 -7 -7 -16 -10 -8 -3 -12 -2 -9 4 6 10 25 14
25 6z m170 -6 c0 -5 -5 -10 -11 -10 -5 0 -7 5 -4 10 3 6 8 10 11 10 2 0 4 -4
4 -10z m-143 -15 c0 -8 -4 -15 -9 -15 -4 0 -8 7 -8 15 0 8 4 15 8 15 5 0 9 -7
9 -15z m-47 -35 c0 -5 -2 -10 -4 -10 -3 0 -8 5 -11 10 -3 6 -1 10 4 10 6 0 11
-4 11 -10z m-30 -10 c24 -15 7 -18 -20 -3 -14 7 -18 13 -10 13 8 0 22 -4 30
-10z m42 -25 c-2 -14 -9 -25 -14 -25 -5 0 -7 3 -5 8 2 4 7 15 10 25 9 25 15
21 9 -8z m-242 5 c0 -5 -5 -10 -11 -10 -5 0 -7 5 -4 10 3 6 8 10 11 10 2 0 4
-4 4 -10z m360 0 c0 -5 -2 -10 -4 -10 -3 0 -8 5 -11 10 -3 6 -1 10 4 10 6 0
11 -4 11 -10z m-184 -37 c-6 -15 -8 -15 -16 -3 -6 9 -6 16 0 18 6 2 7 9 4 15
-5 9 -4 9 6 0 7 -7 10 -19 6 -30z m21 -18 c0 -8 -4 -12 -9 -9 -5 3 -6 10 -3
15 9 13 12 11 12 -6z m36 8 c3 -5 0 -17 -4 -28 -9 -19 -9 -19 -5 2 2 12 -1 24
-8 27 -8 3 -8 5 1 5 6 1 14 -2 16 -6z m-32 -56 c-10 -9 -11 -8 -5 6 3 10 9 15
12 12 3 -3 0 -11 -7 -18z m-65 -10 c10 4 12 0 7 -13 -6 -18 -6 -18 14 -1 14
12 23 15 28 8 3 -6 -1 -11 -10 -11 -8 0 -18 -7 -21 -15 -5 -12 -10 -10 -25 9
-10 13 -19 28 -18 33 0 4 3 3 5 -4 3 -7 12 -9 20 -6z m-49 -24 c-3 -3 -11 -2
-17 2 -9 6 -9 10 1 16 14 8 27 -7 16 -18z m-88 -27 c-9 -8 -10 -7 -5 7 3 10 7
24 7 30 1 7 3 4 6 -7 3 -10 -1 -23 -8 -30z m-49 9 c0 -8 -4 -15 -9 -15 -13 0
-22 16 -14 24 11 11 23 6 23 -9z m234 0 c3 -8 1 -15 -4 -15 -6 0 -10 7 -10 15
0 8 2 15 4 15 2 0 6 -7 10 -15z m-68 -6 c3 -6 2 -15 -4 -21 -6 -6 -11 -2 -15
11 -5 22 7 29 19 10z m-62 -39 c-6 -6 -10 -3 -10 10 0 13 4 16 10 10 7 -7 7
-13 0 -20z m34 5 c-3 -3 -9 2 -12 12 -6 14 -5 15 5 6 7 -7 10 -15 7 -18z m-98
11 c0 -3 -4 -8 -10 -11 -5 -3 -10 -1 -10 4 0 6 5 11 10 11 6 0 10 -2 10 -4z
m-10 -36 c0 -5 -5 -10 -11 -10 -5 0 -7 5 -4 10 3 6 8 10 11 10 2 0 4 -4 4 -10z
m86 -11 c3 -6 1 -16 -6 -22 -9 -9 -11 -9 -8 2 5 21 -20 25 -25 4 -4 -14 -5
-13 -6 5 -1 16 5 22 18 22 11 0 23 -5 27 -11z m-142 -34 c-10 -8 -23 -15 -28
-15 -6 0 -1 7 10 15 10 8 23 15 28 15 6 0 1 -7 -10 -15z m82 6 c-4 -5 -1 -11
6 -13 7 -3 5 -7 -6 -11 -10 -4 -15 -3 -11 3 3 6 0 10 -7 10 -9 0 -9 3 2 10 19
12 23 12 16 1z m-8 -72 c-2 -7 -10 -4 -18 7 -9 11 -10 15 -2 10 7 -4 12 -2 13
6 0 10 2 10 6 1 2 -7 3 -18 1 -24z m32 27 c0 -3 -4 -8 -10 -11 -5 -3 -10 -1
-10 4 0 6 5 11 10 11 6 0 10 -2 10 -4z m-180 -24 c0 -11 -37 -41 -43 -35 -6 5
24 41 36 42 4 1 7 -2 7 -7z m84 -27 c-4 -8 -11 -15 -16 -15 -6 0 -5 6 2 15 7
8 14 15 16 15 2 0 1 -7 -2 -15z m-39 -25 c-3 -5 -10 -10 -16 -10 -5 0 -9 5 -9
10 0 6 7 10 16 10 8 0 12 -4 9 -10z m25 -14 c0 -3 -4 -8 -10 -11 -5 -3 -10 -1
-10 4 0 6 5 11 10 11 6 0 10 -2 10 -4z m-10 -53 c6 -8 6 -14 0 -18 -6 -3 -10
-2 -10 4 0 14 -33 7 -38 -9 -3 -7 0 -10 5 -7 5 3 15 2 23 -4 11 -6 8 -9 -12
-9 -35 0 -42 13 -18 35 21 19 28 51 8 39 -7 -5 -8 -3 -3 6 6 10 11 9 21 -6 7
-10 18 -24 24 -31z m50 33 c0 -10 -7 -12 -22 -8 -14 3 -19 2 -14 -6 4 -7 5
-12 2 -12 -3 0 -8 5 -11 10 -5 8 17 23 43 29 1 1 2 -5 2 -13z m-135 -26 c3 -5
1 -10 -4 -10 -6 0 -11 5 -11 10 0 6 2 10 4 10 3 0 8 -4 11 -10z m-15 -45 c7
-9 8 -15 2 -15 -5 0 -12 7 -16 15 -3 8 -4 15 -2 15 2 0 9 -7 16 -15z m9 -41
c4 3 7 -6 7 -20 0 -18 -5 -24 -20 -23 -12 0 -15 3 -8 6 15 6 16 33 1 33 -5 0
-7 5 -3 12 6 9 9 9 12 0 2 -7 7 -10 11 -8z m66 -4 c3 -5 1 -10 -4 -10 -6 0
-11 5 -11 10 0 6 2 10 4 10 3 0 8 -4 11 -10z m-102 -25 c-3 -9 -8 -14 -10 -11
-3 3 -2 9 2 15 9 16 15 13 8 -4z m82 -11 c9 -15 12 -23 6 -20 -11 7 -35 46
-28 46 3 0 12 -12 22 -26z m-175 -24 c12 -8 11 -10 -7 -10 -13 0 -23 5 -23 10
0 13 11 13 30 0z m80 -5 c0 -8 -2 -15 -4 -15 -2 0 -6 7 -10 15 -3 8 -1 15 4
15 6 0 10 -7 10 -15z m-6 -55 c10 -13 9 -13 -6 -1 -10 7 -18 10 -18 5 0 -5 -4
-2 -10 6 -6 9 -5 17 3 22 7 4 14 2 16 -5 2 -7 9 -19 15 -27z m-117 -5 c0 -8
-4 -15 -9 -15 -10 0 -11 14 -1 23 9 10 10 9 10 -8z m-37 -6 c13 -9 13 -10 -2
-6 -9 3 -19 1 -22 -6 -2 -7 -5 -4 -5 6 -1 20 7 21 29 6z m95 -40 c-6 -31 -12
-34 -32 -14 -16 17 -16 17 5 11 12 -4 22 -4 21 1 -2 12 0 23 5 23 3 0 3 -10 1
-21z m-21 -34 c18 -14 18 -15 2 -15 -10 0 -14 -4 -10 -12 5 -7 3 -8 -6 -3 -8
5 -17 2 -24 -7 -10 -14 -13 -12 -23 9 -10 20 -9 22 1 14 15 -12 46 -5 46 11 0
6 -7 7 -16 4 -8 -3 -12 -2 -9 4 8 13 16 12 39 -5z m61 -15 c-3 -5 -12 -10 -18
-10 -7 0 -6 4 3 10 19 12 23 12 15 0z m-204 -33 c-10 -9 -11 -8 -5 6 3 10 9
15 12 12 3 -3 0 -11 -7 -18z m70 -29 c-14 -5 -29 -4 -39 2 -14 9 -13 10 5 5
12 -3 24 -1 28 5 3 6 11 7 17 4 7 -5 3 -11 -11 -16z m-63 -13 c-3 -3 -9 2 -12
12 -6 14 -5 15 5 6 7 -7 10 -15 7 -18z m82 1 c0 -3 -4 -8 -10 -11 -5 -3 -10
-1 -10 4 0 6 5 11 10 11 6 0 10 -2 10 -4z m-36 -41 c2 -15 -1 -24 -8 -22 -9 3
-12 25 -7 54 2 14 13 -7 15 -32z m181 25 c3 -5 1 -10 -4 -10 -6 0 -11 5 -11
10 0 6 2 10 4 10 3 0 8 -4 11 -10z m-255 -14 c0 -3 -4 -8 -10 -11 -5 -3 -10
-1 -10 4 0 6 5 11 10 11 6 0 10 -2 10 -4z m40 -6 c0 -5 -4 -10 -9 -10 -6 0
-13 5 -16 10 -3 6 1 10 9 10 9 0 16 -4 16 -10z m-80 -4 c0 -3 -4 -8 -10 -11
-5 -3 -10 -1 -10 4 0 6 5 11 10 11 6 0 10 -2 10 -4z m-32 -41 c-3 -3 -9 2 -12
12 -6 14 -5 15 5 6 7 -7 10 -15 7 -18z m89 19 c-3 -3 -12 -4 -19 -1 -8 3 -5 6
6 6 11 1 17 -2 13 -5z m-277 -14 c0 -5 -5 -10 -11 -10 -5 0 -7 5 -4 10 3 6 8
10 11 10 2 0 4 -4 4 -10z m293 -10 c-9 -11 -19 -17 -21 -15 -6 6 18 35 29 35
5 0 1 -9 -8 -20z m-46 -12 c-3 -8 -6 -5 -6 6 -1 11 2 17 5 13 3 -3 4 -12 1
-19z m-102 -8 c8 -13 -5 -13 -25 0 -13 8 -13 10 2 10 9 0 20 -4 23 -10z m-17
-29 c3 -8 -1 -12 -9 -9 -7 2 -15 10 -17 17 -3 8 1 12 9 9 7 -2 15 -10 17 -17z
m243 -4 c-10 -9 -11 -8 -5 6 3 10 9 15 12 12 3 -3 0 -11 -7 -18z m-136 3 c8
-13 -5 -13 -25 0 -13 8 -13 10 2 10 9 0 20 -4 23 -10z m30 0 c3 -5 1 -10 -4
-10 -6 0 -11 5 -11 10 0 6 2 10 4 10 3 0 8 -4 11 -10z m-165 -25 c14 -19 14
-19 -2 -6 -10 7 -18 18 -18 24 0 6 1 8 3 6 1 -2 9 -13 17 -24z m187 13 c-2 -7
3 -18 12 -25 14 -11 14 -12 -1 -13 -10 0 -18 5 -18 10 0 6 -8 11 -17 11 -17 1
-17 2 0 6 9 2 17 9 17 14 0 5 3 9 6 9 3 0 4 -6 1 -12z m-69 -29 c4 -11 2 -11
-8 -2 -7 6 -20 9 -29 6 -14 -4 -14 -3 -1 6 18 13 32 10 38 -10z m-81 -13 c-3
-8 -1 -17 6 -20 8 -3 8 -5 1 -5 -6 -1 -18 7 -25 16 -10 11 -10 14 -1 9 6 -4
12 -2 12 3 0 6 3 11 6 11 3 0 4 -6 1 -14z m108 4 c3 -5 1 -10 -4 -10 -6 0 -11
5 -11 10 0 6 2 10 4 10 3 0 8 -4 11 -10z m-48 -12 c-2 -7 3 -18 12 -25 14 -10
14 -11 -4 -9 -20 3 -32 46 -13 46 5 0 8 -6 5 -12z m-27 -43 c0 -8 -2 -15 -4
-15 -2 0 -6 7 -10 15 -3 8 -1 15 4 15 6 0 10 -7 10 -15z m-20 -15 c0 -5 -4
-10 -9 -10 -6 0 -13 5 -16 10 -3 6 1 10 9 10 9 0 16 -4 16 -10z"/>
<path d="M6631 1734 c0 -11 3 -14 6 -6 3 7 2 16 -1 19 -3 4 -6 -2 -5 -13z"/>
<path d="M7285 2550 c-3 -5 -1 -10 4 -10 6 0 11 5 11 10 0 6 -2 10 -4 10 -3 0
-8 -4 -11 -10z"/>
<path d="M7141 2497 c-6 -8 -7 -17 -3 -21 4 -4 -2 -15 -13 -23 -18 -14 -11
-28 11 -23 4 1 10 -3 13 -8 3 -6 12 -3 20 6 13 13 12 14 -13 10 -17 -4 -25 -1
-23 6 2 6 8 11 13 11 14 0 34 15 34 26 0 5 -5 9 -11 9 -5 0 -7 -4 -4 -10 3 -5
2 -10 -4 -10 -21 0 -21 21 1 29 15 7 17 10 7 10 -9 1 -22 -5 -28 -12z"/>
<path d="M7202 2461 c2 -7 7 -12 11 -12 12 1 9 15 -3 20 -7 2 -11 -2 -8 -8z"/>
<path d="M7092 2404 c2 -10 -1 -19 -7 -19 -20 -1 -34 -16 -28 -30 3 -8 9 -15
14 -15 4 0 5 8 2 17 -5 13 -3 15 12 9 11 -4 16 -4 13 0 -12 11 22 36 40 29 11
-4 13 -3 7 3 -5 5 -20 13 -33 17 -19 5 -23 3 -20 -11z"/>
<path d="M7170 2410 c0 -5 5 -10 11 -10 5 0 7 5 4 10 -3 6 -8 10 -11 10 -2 0
-4 -4 -4 -10z"/>
<path d="M7100 2342 c0 -14 28 -23 36 -11 3 6 3 13 0 16 -3 4 -6 1 -6 -7 0
-10 -3 -10 -15 0 -9 7 -15 8 -15 2z"/>
<path d="M7012 2327 c2 -6 -8 -27 -21 -45 -18 -26 -26 -31 -32 -20 -7 10 -9 9
-9 -4 0 -10 -5 -18 -11 -18 -5 0 -7 -5 -3 -11 3 -6 0 -15 -7 -20 -11 -7 -10
-9 4 -9 9 0 17 7 17 15 0 22 15 18 17 -4 1 -11 -6 -21 -19 -24 -11 -3 -17 -10
-14 -15 3 -6 -1 -12 -9 -16 -18 -7 -27 7 -18 31 3 10 4 16 2 13 -2 -3 -13 -15
-24 -28 -16 -20 -16 -22 -2 -16 9 3 17 5 17 3 1 -2 3 -21 6 -42 5 -33 3 -39
-15 -44 -12 -3 -21 -9 -21 -13 0 -9 38 -1 45 10 2 4 5 23 7 43 1 22 7 37 15
37 7 0 13 7 13 16 0 10 6 14 14 11 17 -7 26 13 26 54 0 25 3 29 18 25 23 -8
46 45 28 65 -8 10 -7 10 7 0 9 -7 17 -10 17 -6 0 4 7 2 15 -5 20 -16 19 -6 -1
14 -19 19 -66 22 -62 3z"/>
<path d="M7050 2289 c-7 -11 -9 -23 -6 -27 3 -3 6 0 6 7 0 7 4 10 8 7 4 -2 9
4 9 15 2 25 -4 24 -17 -2z"/>
<path d="M7100 2289 c0 -5 5 -7 10 -4 6 3 10 8 10 11 0 2 -4 4 -10 4 -5 0 -10
-5 -10 -11z"/>
<path d="M7015 2219 c-11 -16 -1 -19 13 -3 7 8 8 14 3 14 -5 0 -13 -5 -16 -11z"/>
<path d="M6962 2134 c-9 -17 -9 -24 3 -34 11 -9 15 -9 15 -1 0 6 -6 11 -12 11
-10 0 -9 3 1 9 7 5 11 15 9 22 -3 10 -8 8 -16 -7z"/>
<path d="M6797 2046 c-4 -10 -5 -21 -2 -24 9 -9 17 6 13 25 -3 17 -4 17 -11
-1z"/>
<path d="M6782 1998 c-7 -7 -12 -19 -12 -27 1 -14 3 -13 14 2 7 9 18 17 25 17
6 0 11 5 11 10 0 14 -23 13 -38 -2z"/>
<path d="M6736 1962 c-19 -42 -17 -60 4 -47 7 4 10 16 7 26 -3 10 0 20 5 21 6
2 9 12 7 23 -3 14 -9 8 -23 -23z"/>
<path d="M6812 1952 c13 -5 15 -11 8 -22 -7 -10 -10 -11 -10 -2 0 6 -4 12 -10
12 -16 0 -12 -17 6 -24 10 -4 22 1 29 11 16 22 10 33 -18 32 -18 0 -19 -2 -5
-7z"/>
<path d="M6662 1898 c-15 -15 -16 -38 -1 -38 6 0 9 6 6 14 -3 7 0 19 6 25 6 6
9 11 6 11 -3 0 -10 -5 -17 -12z"/>
<path d="M6759 1903 c-1 -5 -1 -12 0 -17 1 -5 -5 -6 -13 -3 -10 4 -13 1 -10
-8 6 -15 34 -28 42 -20 3 3 0 5 -7 5 -7 0 -10 10 -7 25 3 14 3 25 0 25 -2 0
-5 -3 -5 -7z"/>
<path d="M6693 1884 c0 -16 13 -19 21 -5 3 5 0 11 -7 14 -8 3 -14 -1 -14 -9z"/>
<path d="M6625 1850 c-3 -5 1 -10 10 -10 9 0 13 5 10 10 -3 6 -8 10 -10 10 -2
0 -7 -4 -10 -10z"/>
<path d="M6685 1850 c-3 -5 -1 -10 4 -10 6 0 11 5 11 10 0 6 -2 10 -4 10 -3 0
-8 -4 -11 -10z"/>
<path d="M6630 1806 c0 -8 7 -16 15 -20 13 -4 14 -2 5 14 -13 23 -20 26 -20 6z"/>
<path d="M6576 1785 c-4 -13 -2 -14 14 -5 23 13 26 20 6 20 -8 0 -16 -7 -20
-15z"/>
<path d="M6400 1770 c0 -5 5 -10 11 -10 5 0 7 5 4 10 -3 6 -8 10 -11 10 -2 0
-4 -4 -4 -10z"/>
<path d="M6549 1730 c-1 -11 -3 -24 -4 -30 -1 -5 -3 -17 -4 -26 0 -8 -6 -12
-11 -9 -6 4 -8 15 -5 26 4 10 3 19 -2 19 -12 0 -14 -38 -2 -45 5 -4 9 -11 9
-16 0 -6 -4 -7 -10 -4 -5 3 -10 0 -10 -7 0 -8 9 -14 19 -14 11 0 17 5 14 10
-3 5 2 15 12 23 11 7 13 13 7 13 -10 0 -10 5 -2 20 6 11 8 26 4 32 -5 7 -3 8
5 3 7 -4 11 -16 8 -26 -3 -10 0 -22 6 -26 7 -3 9 -3 5 1 -4 5 -3 18 2 30 6 17
4 25 -11 34 -25 16 -29 15 -30 -8z"/>
<path d="M6400 1570 c0 -5 5 -10 11 -10 5 0 7 5 4 10 -3 6 -8 10 -11 10 -2 0
-4 -4 -4 -10z"/>
<path d="M6384 1539 c0 -10 4 -19 8 -19 4 0 8 6 8 14 0 8 -4 17 -8 20 -4 2 -8
-4 -8 -15z"/>
<path d="M6416 1533 c-6 -14 -5 -15 5 -6 7 7 10 15 7 18 -3 3 -9 -2 -12 -12z"/>
<path d="M6365 1500 c-3 -5 1 -10 10 -10 9 0 13 5 10 10 -3 6 -8 10 -10 10 -2
0 -7 -4 -10 -10z"/>
<path d="M6400 1495 c0 -8 2 -15 4 -15 2 0 6 7 10 15 3 8 1 15 -4 15 -6 0 -10
-7 -10 -15z"/>
<path d="M6366 1372 c2 -3 -1 -11 -7 -19 -8 -9 -8 -13 -1 -13 16 0 26 20 15
30 -6 4 -8 5 -7 2z"/>
<path d="M6241 1316 c-6 -7 -8 -16 -4 -19 3 -4 1 -7 -6 -7 -7 0 -10 -4 -6 -9
3 -5 1 -12 -5 -16 -5 -3 -10 -11 -10 -16 0 -6 5 -7 10 -4 6 3 10 2 10 -3 0 -6
6 -12 14 -15 9 -4 14 2 13 16 0 12 3 29 7 39 5 11 2 18 -11 22 -10 3 -6 4 10
2 32 -4 34 0 8 13 -14 8 -22 7 -30 -3z m6 -48 c-3 -8 -6 -5 -6 6 -1 11 2 17 5
13 3 -3 4 -12 1 -19z"/>
<path d="M6190 1274 c0 -8 -4 -13 -9 -9 -8 4 -9 -27 -2 -77 2 -15 26 -8 38 11
11 17 10 19 -6 16 -16 -3 -17 1 -11 36 4 21 3 39 -1 39 -5 0 -9 -7 -9 -16z"/>
<path d="M6140 1207 c0 -9 4 -18 9 -21 5 -4 8 1 7 9 -3 21 -16 31 -16 12z"/>
<path d="M6070 1140 c0 -5 5 -10 11 -10 5 0 7 5 4 10 -3 6 -8 10 -11 10 -2 0
-4 -4 -4 -10z"/>
<path d="M6115 1140 c-4 -6 6 -10 22 -10 22 0 25 2 13 10 -19 12 -27 12 -35 0z"/>
<path d="M6141 1099 c-1 -16 4 -26 14 -26 9 0 11 4 6 11 -4 6 -11 18 -14 26
-3 9 -6 5 -6 -11z"/>
<path d="M6085 1100 c-3 -5 -15 -10 -26 -10 -10 0 -19 -3 -19 -7 0 -15 47 -8
65 10 16 15 16 17 2 17 -9 0 -19 -4 -22 -10z"/>
<path d="M6110 1081 c0 -6 5 -13 10 -16 6 -3 10 1 10 9 0 9 -4 16 -10 16 -5 0
-10 -4 -10 -9z"/>
<path d="M6045 1046 c-25 -18 -27 -42 -4 -43 19 -2 32 11 42 40 8 21 -11 23
-38 3z"/>
<path d="M5990 1025 c0 -8 2 -15 4 -15 2 0 6 7 10 15 3 8 1 15 -4 15 -6 0 -10
-7 -10 -15z"/>
<path d="M6029 968 c4 -13 6 -29 3 -37 -3 -8 0 -11 7 -7 6 4 9 17 7 29 -3 12
-5 25 -5 30 -1 4 -5 7 -11 7 -6 0 -6 -9 -1 -22z"/>
<path d="M6100 970 c0 -5 5 -10 10 -10 6 0 10 5 10 10 0 6 -4 10 -10 10 -5 0
-10 -4 -10 -10z"/>
<path d="M5985 890 c-3 -6 1 -7 9 -4 18 7 21 14 7 14 -6 0 -13 -4 -16 -10z"/>
<path d="M5955 849 c-4 -6 -5 -12 -2 -15 2 -3 7 2 10 11 7 17 1 20 -8 4z"/>
<path d="M5845 840 c-3 -6 1 -7 9 -4 18 7 21 14 7 14 -6 0 -13 -4 -16 -10z"/>
<path d="M5800 745 c-7 -9 -8 -15 -2 -15 5 0 12 7 16 15 3 8 4 15 2 15 -2 0
-9 -7 -16 -15z"/>
<path d="M5697 739 c7 -7 15 -10 18 -7 3 3 -2 9 -12 12 -14 6 -15 5 -6 -5z"/>
<path d="M5865 740 c-3 -5 -1 -10 4 -10 6 0 11 5 11 10 0 6 -2 10 -4 10 -3 0
-8 -4 -11 -10z"/>
<path d="M5680 634 c0 -8 5 -12 10 -9 6 3 10 10 10 16 0 5 -4 9 -10 9 -5 0
-10 -7 -10 -16z"/>
<path d="M5692 610 c-7 -12 -18 -18 -25 -15 -7 4 -4 0 6 -8 10 -9 15 -21 11
-31 -8 -21 -24 -21 -25 2 0 14 -2 14 -9 -3 -14 -32 -12 -36 18 -30 21 4 19 2
-8 -9 -19 -7 -39 -11 -43 -9 -9 6 -37 -16 -37 -28 0 -5 5 -9 10 -9 6 0 9 5 8
11 -2 6 3 14 11 17 8 3 11 0 7 -7 -4 -6 -2 -11 3 -11 6 0 11 5 11 12 0 6 6 3
14 -8 8 -10 18 -16 22 -11 4 4 2 7 -4 7 -21 0 -12 20 13 30 15 6 24 17 23 27
0 10 0 26 0 37 2 16 4 17 19 5 15 -13 16 -12 11 9 -4 12 -2 20 3 16 5 -3 9 -1
9 4 0 8 -22 22 -33 22 -1 0 -8 -9 -15 -20z"/>
<path d="M5767 574 c6 -17 17 -18 31 -1 8 9 4 12 -13 13 -16 1 -22 -2 -18 -12z"/>
<path d="M5720 545 c-11 -13 -10 -14 4 -9 9 3 16 10 16 15 0 13 -6 11 -20 -6z"/>
</g>
</svg>
